<svg width="60" height="60" viewBox="0 0 60 60" fill="none" xmlns="http://www.w3.org/2000/svg">
<path fill-rule="evenodd" clip-rule="evenodd" d="M15 9.92857C15 7.75888 16.7589 6 18.9286 6H41.2737C43.4434 6 45.2022 7.75888 45.2022 9.92857V50.0714C45.2022 52.2411 43.4434 54 41.2737 54H18.9286C16.7589 54 15 52.2411 15 50.0714V9.92857ZM18.2363 11.3861C18.2363 10.7944 18.716 10.3147 19.3078 10.3147H22.2513L24.169 14.6296H36.0342L37.4725 10.3147H40.8952C41.487 10.3147 41.9667 10.7944 41.9667 11.3861V49.1534C41.9667 49.7451 41.487 50.2248 40.8952 50.2248H19.3078C18.716 50.2248 18.2363 49.7451 18.2363 49.1534V11.3861Z" fill="#68C942"/>
</svg>
