<svg width="60" height="60" viewBox="0 0 60 60" fill="none" xmlns="http://www.w3.org/2000/svg">
<path fill-rule="evenodd" clip-rule="evenodd" d="M53.4214 18.7229C53.4214 25.7496 47.7251 31.4458 40.6985 31.4458C39.9229 31.4458 39.1636 31.3764 38.4264 31.2435L31.1469 38.5229C31.3426 39.4098 31.4458 40.3314 31.4458 41.2771C31.4458 48.3037 25.7496 54 18.7229 54C15.9463 54 13.3774 53.1105 11.2856 51.601L17.8589 45.0277C18.7623 44.1243 18.7623 42.6596 17.8589 41.7562C16.9556 40.8529 15.4909 40.8529 14.5875 41.7562L8.085 48.2588C6.76689 46.2544 6 43.8553 6 41.2771C6 34.2504 11.6962 28.5542 18.7229 28.5542C19.7592 28.5542 20.7665 28.6781 21.7309 28.9119L28.4535 22.1893C28.1422 21.0873 27.9756 19.9245 27.9756 18.7229C27.9756 11.6962 33.6718 6 40.6985 6C43.426 6 45.9531 6.85828 48.0243 8.3195L41.1782 15.1657C40.2748 16.0691 40.2748 17.5337 41.1782 18.4371C42.0815 19.3405 43.5462 19.3405 44.4496 18.4371L51.2601 11.6266C52.6249 13.6538 53.4214 16.0953 53.4214 18.7229Z" fill="#68C942"/>
</svg>
