<svg width="60" height="60" viewBox="0 0 60 60" fill="none" xmlns="http://www.w3.org/2000/svg">
<path d="M25.6844 29.6074L11.9901 43.3018C7.68659 47.659 13.289 57.6186 21.3271 52.6388L33.4653 40.5006C40.6778 35.5209 49.0811 42.3681 42.8025 50.1489" stroke="#68C942" stroke-width="3" stroke-linecap="round"/>
<path fill-rule="evenodd" clip-rule="evenodd" d="M24.2444 14.3947C20.0242 18.4813 19.9158 25.2153 24.0023 29.4355C28.0888 33.6558 34.8228 33.7642 39.0431 29.6776L44.6191 24.2782C48.8394 20.1917 48.9478 13.4577 44.8612 9.23749C40.7747 5.01724 34.0407 4.90884 29.8205 8.99537L24.2444 14.3947ZM31.4551 28.3621C34.8929 28.3621 37.6798 25.5752 37.6798 22.1374C37.6798 18.6996 34.8929 15.9127 31.4551 15.9127C28.0173 15.9127 25.2304 18.6996 25.2304 22.1374C25.2304 25.5752 28.0173 28.3621 31.4551 28.3621Z" fill="#68C942"/>
</svg>
