<svg width="60" height="60" viewBox="0 0 60 60" fill="none" xmlns="http://www.w3.org/2000/svg">
<path fill-rule="evenodd" clip-rule="evenodd" d="M22.027 7.51688C22.2489 6.6256 23.0493 6 23.9678 6H34.6161C35.5346 6 36.335 6.62559 36.5569 7.51688L38.1931 14.0896H38.5449C41.0302 14.0896 43.0449 16.1043 43.0449 18.5896V20.562H44.8272C45.0343 20.562 45.2022 20.7299 45.2022 20.937V28.8162C45.2022 29.0233 45.0343 29.1912 44.8272 29.1912H43.0449V41.4098C43.0449 43.8951 41.0302 45.9098 38.5449 45.9098H38.1935L36.5572 52.4831C36.3353 53.3744 35.5349 54 34.6164 54H23.9681C23.0496 54 22.2492 53.3744 22.0273 52.4831L20.391 45.9098H19.5C17.0147 45.9098 15 43.8951 15 41.4098V18.5896C15 16.1043 17.0147 14.0896 19.5 14.0896H20.3909L22.027 7.51688ZM18 18.375C18 17.3395 18.8395 16.5 19.875 16.5H38.625C39.6605 16.5 40.5 17.3395 40.5 18.375V41.625C40.5 42.6605 39.6605 43.5 38.625 43.5H19.875C18.8395 43.5 18 42.6605 18 41.625V18.375Z" fill="#68C942"/>
</svg>
